<?xml version="1.0" encoding="utf-8"?>
<svg width="607" height="13" viewBox="0 0 607 13" fill="none" xmlns="http://www.w3.org/2000/svg">
  <g id="Group">
    <rect id="Rectangle" width="607" height="0.907" fill="#000000" fill-rule="evenodd" />
    <g id="Group" transform="translate(0 0.907)">
      <path id="Rectangle" d="M11.9899 0C14.9958 0 17.4318 2.436 17.4318 5.44186L17.4318 5.44186C17.4318 8.44773 14.9958 10.8837 11.9899 10.8837L5.44186 10.8837C2.436 10.8837 0 8.44773 0 5.44186L0 5.44186C0 2.436 2.436 0 5.44186 0L11.9899 0Z" fill="#FF5722" transform="translate(0 1.209)" />
      <rect id="Rectangle" width="3.735" height="1.209" fill="#000000" fill-rule="evenodd" transform="translate(6.848 0)" />
      <g id="Group" transform="translate(25.525 0)">
        <path id="Rectangle" d="M11.9899 0C14.9958 0 17.4318 2.436 17.4318 5.44186L17.4318 5.44186C17.4318 8.44773 14.9958 10.8837 11.9899 10.8837L5.44186 10.8837C2.436 10.8837 0 8.44773 0 5.44186L0 5.44186C0 2.436 2.436 0 5.44186 0L11.9899 0Z" fill="#09FF00" transform="translate(0 1.209)" />
        <rect id="Rectangle" width="3.735" height="1.209" fill="#000000" fill-rule="evenodd" transform="translate(6.848 0)" />
      </g>
      <g id="Group" transform="translate(51.05 0)">
        <path id="Rectangle" d="M11.9899 0C14.9958 0 17.4318 2.436 17.4318 5.44186L17.4318 5.44186C17.4318 8.44773 14.9958 10.8837 11.9899 10.8837L5.44186 10.8837C2.436 10.8837 0 8.44773 0 5.44186L0 5.44186C0 2.436 2.436 0 5.44186 0L11.9899 0Z" fill="#0044FF" transform="translate(0 1.209)" />
        <rect id="Rectangle" width="3.735" height="1.209" fill="#000000" fill-rule="evenodd" transform="translate(6.848 0)" />
      </g>
      <g id="Group" transform="translate(76.575 0)">
        <path id="Rectangle" d="M11.9899 0C14.9958 0 17.4318 2.436 17.4318 5.44186L17.4318 5.44186C17.4318 8.44773 14.9958 10.8837 11.9899 10.8837L5.44186 10.8837C2.436 10.8837 0 8.44773 0 5.44186L0 5.44186C0 2.436 2.436 0 5.44186 0L11.9899 0Z" fill="#6600FF" transform="translate(0 1.209)" />
        <rect id="Rectangle" width="3.735" height="1.209" fill="#000000" fill-rule="evenodd" transform="translate(6.848 0)" />
      </g>
    </g>
    <g id="Group" transform="translate(102.101 0.907)">
      <path id="Rectangle" d="M11.9899 0C14.9958 0 17.4318 2.436 17.4318 5.44186L17.4318 5.44186C17.4318 8.44773 14.9958 10.8837 11.9899 10.8837L5.44186 10.8837C2.436 10.8837 0 8.44773 0 5.44186L0 5.44186C0 2.436 2.436 0 5.44186 0L11.9899 0Z" fill="#FF5722" transform="translate(0 1.209)" />
      <rect id="Rectangle" width="3.735" height="1.209" fill="#000000" fill-rule="evenodd" transform="translate(6.848 0)" />
      <g id="Group" transform="translate(25.525 0)">
        <path id="Rectangle" d="M5.34375 0L12.088 0Q12.2192 0 12.3502 0.00643678Q12.4813 0.0128736 12.6118 0.0257316Q12.7424 0.0385897 12.8721 0.057838Q13.0019 0.0770864 13.1305 0.102679Q13.2592 0.128271 13.3865 0.160145Q13.5137 0.19202 13.6392 0.2301Q13.7648 0.26818 13.8883 0.312374Q14.0118 0.356568 14.133 0.406769Q14.2542 0.45697 14.3728 0.513057Q14.4914 0.569144 14.6071 0.630983Q14.7228 0.692822 14.8353 0.760263Q14.9478 0.827703 15.0569 0.900584Q15.1659 0.973465 15.2713 1.05161Q15.3767 1.12975 15.4781 1.21298Q15.5795 1.2962 15.6767 1.38429Q15.7739 1.47239 15.8666 1.56515Q15.9594 1.65791 16.0475 1.75511Q16.1356 1.85231 16.2188 1.95371Q16.302 2.05512 16.3802 2.16048Q16.4583 2.26585 16.5312 2.37492Q16.6041 2.48399 16.6715 2.59651Q16.739 2.70903 16.8008 2.82472Q16.8626 2.94042 16.9187 3.059Q16.9748 3.17759 17.025 3.29879Q17.0752 3.41998 17.1194 3.54349Q17.1636 3.66701 17.2017 3.79254Q17.2398 3.91807 17.2716 4.04532Q17.3035 4.17257 17.3291 4.30124Q17.3547 4.4299 17.3739 4.55966Q17.3932 4.68942 17.4061 4.81997Q17.4189 4.95052 17.4253 5.08154Q17.4318 5.21257 17.4318 5.34375L17.4318 5.53997Q17.4318 5.67115 17.4253 5.80218Q17.4189 5.9332 17.4061 6.06375Q17.3932 6.1943 17.3739 6.32406Q17.3547 6.45383 17.3291 6.58249Q17.3035 6.71115 17.2716 6.8384Q17.2398 6.96565 17.2017 7.09118Q17.1636 7.21671 17.1194 7.34023Q17.0752 7.46374 17.025 7.58494Q16.9748 7.70613 16.9187 7.82472Q16.8626 7.94331 16.8008 8.059Q16.739 8.17469 16.6715 8.28721Q16.6041 8.39973 16.5312 8.5088Q16.4583 8.61787 16.3802 8.72324Q16.302 8.82861 16.2188 8.93001Q16.1356 9.03142 16.0475 9.12862Q15.9594 9.22581 15.8666 9.31857Q15.7739 9.41133 15.6767 9.49943Q15.5795 9.58753 15.4781 9.67075Q15.3767 9.75397 15.2713 9.83211Q15.1659 9.91026 15.0569 9.98314Q14.9478 10.056 14.8353 10.1235Q14.7227 10.1909 14.6071 10.2527Q14.4914 10.3146 14.3728 10.3707Q14.2542 10.4268 14.133 10.477Q14.0118 10.5272 13.8883 10.5713Q13.7648 10.6155 13.6392 10.6536Q13.5137 10.6917 13.3865 10.7236Q13.2592 10.7555 13.1305 10.781Q13.0019 10.8066 12.8721 10.8259Q12.7424 10.8451 12.6118 10.858Q12.4813 10.8708 12.3502 10.8773Q12.2192 10.8837 12.088 10.8837L5.34375 10.8837Q5.21257 10.8837 5.08154 10.8773Q4.95052 10.8708 4.81997 10.858Q4.68942 10.8451 4.55966 10.8259Q4.4299 10.8066 4.30124 10.781Q4.17257 10.7555 4.04532 10.7236Q3.91807 10.6917 3.79254 10.6536Q3.66701 10.6155 3.54349 10.5713Q3.41998 10.5272 3.29879 10.477Q3.17759 10.4268 3.059 10.3707Q2.94042 10.3146 2.82472 10.2527Q2.70903 10.1909 2.59651 10.1235Q2.48399 10.056 2.37492 9.98314Q2.26585 9.91026 2.16048 9.83211Q2.05512 9.75397 1.95371 9.67075Q1.85231 9.58753 1.75511 9.49943Q1.65791 9.41133 1.56515 9.31857Q1.47239 9.22581 1.38429 9.12862Q1.2962 9.03142 1.21298 8.93001Q1.12975 8.82861 1.05161 8.72324Q0.973465 8.61787 0.900584 8.5088Q0.827703 8.39973 0.760263 8.28721Q0.692822 8.17469 0.630983 8.059Q0.569144 7.94331 0.513057 7.82472Q0.45697 7.70613 0.406769 7.58494Q0.356568 7.46374 0.312374 7.34023Q0.26818 7.21671 0.2301 7.09118Q0.19202 6.96565 0.160145 6.8384Q0.128271 6.71115 0.102679 6.58249Q0.0770864 6.45383 0.057838 6.32406Q0.0385897 6.1943 0.0257316 6.06375Q0.0128736 5.9332 0.00643678 5.80218Q0 5.67115 0 5.53997L0 5.34375Q0 5.21257 0.00643678 5.08154Q0.0128736 4.95052 0.0257316 4.81997Q0.0385897 4.68942 0.057838 4.55966Q0.0770864 4.4299 0.102679 4.30124Q0.128271 4.17257 0.160145 4.04532Q0.19202 3.91807 0.2301 3.79254Q0.26818 3.66701 0.312374 3.54349Q0.356568 3.41998 0.406769 3.29879Q0.45697 3.17759 0.513057 3.059Q0.569144 2.94042 0.630983 2.82472Q0.692822 2.70903 0.760263 2.59651Q0.827703 2.48399 0.900584 2.37492Q0.973465 2.26585 1.05161 2.16048Q1.12975 2.05512 1.21298 1.95371Q1.2962 1.85231 1.38429 1.75511Q1.47239 1.65791 1.56515 1.56515Q1.65791 1.47239 1.75511 1.38429Q1.85231 1.2962 1.95371 1.21298Q2.05512 1.12975 2.16048 1.05161Q2.26585 0.973465 2.37492 0.900584Q2.48399 0.827703 2.59651 0.760263Q2.70903 0.692822 2.82472 0.630983Q2.94042 0.569144 3.059 0.513057Q3.17759 0.45697 3.29879 0.406769Q3.41998 0.356568 3.54349 0.312374Q3.66701 0.26818 3.79254 0.2301Q3.91807 0.19202 4.04532 0.160145Q4.17257 0.128271 4.30124 0.102679Q4.4299 0.0770864 4.55966 0.057838Q4.68942 0.0385897 4.81997 0.0257316Q4.95052 0.0128736 5.08154 0.00643678Q5.21257 0 5.34375 0L5.34375 0Z" fill="#09FF00" fill-rule="evenodd" transform="translate(0 1.209)" />
        <rect id="Rectangle" width="3.735" height="1.209" fill="#000000" fill-rule="evenodd" transform="translate(6.848 0)" />
      </g>
      <g id="Group" transform="translate(51.05 0)">
        <path id="Rectangle" d="M11.9899 0C14.9958 0 17.4318 2.436 17.4318 5.44186L17.4318 5.44186C17.4318 8.44773 14.9958 10.8837 11.9899 10.8837L5.44186 10.8837C2.436 10.8837 0 8.44773 0 5.44186L0 5.44186C0 2.436 2.436 0 5.44186 0L11.9899 0Z" fill="#0044FF" transform="translate(0 1.209)" />
        <rect id="Rectangle" width="3.735" height="1.209" fill="#000000" fill-rule="evenodd" transform="translate(6.848 0)" />
      </g>
      <g id="Group" transform="translate(76.575 0)">
        <path id="Rectangle" d="M11.9899 0C14.9958 0 17.4318 2.436 17.4318 5.44186L17.4318 5.44186C17.4318 8.44773 14.9958 10.8837 11.9899 10.8837L5.44186 10.8837C2.436 10.8837 0 8.44773 0 5.44186L0 5.44186C0 2.436 2.436 0 5.44186 0L11.9899 0Z" fill="#6600FF" transform="translate(0 1.209)" />
        <rect id="Rectangle" width="3.735" height="1.209" fill="#000000" fill-rule="evenodd" transform="translate(6.848 0)" />
      </g>
    </g>
    <g id="Group" transform="translate(204.201 0.907)">
      <path id="Rectangle" d="M11.9899 0C14.9958 0 17.4318 2.436 17.4318 5.44186L17.4318 5.44186C17.4318 8.44773 14.9958 10.8837 11.9899 10.8837L5.44186 10.8837C2.436 10.8837 0 8.44773 0 5.44186L0 5.44186C0 2.436 2.436 0 5.44186 0L11.9899 0Z" fill="#FF5722" transform="translate(0 1.209)" />
      <rect id="Rectangle" width="3.735" height="1.209" fill="#000000" fill-rule="evenodd" transform="translate(6.849 0)" />
      <g id="Group" transform="translate(25.525 0)">
        <path id="Rectangle" d="M11.9899 0C14.9958 0 17.4318 2.436 17.4318 5.44186L17.4318 5.44186C17.4318 8.44773 14.9958 10.8837 11.9899 10.8837L5.44186 10.8837C2.436 10.8837 0 8.44773 0 5.44186L0 5.44186C0 2.436 2.436 0 5.44186 0L11.9899 0Z" fill="#09FF00" transform="translate(0 1.209)" />
        <rect id="Rectangle" width="3.735" height="1.209" fill="#000000" fill-rule="evenodd" transform="translate(6.849 0)" />
      </g>
      <g id="Group" transform="translate(51.05 0)">
        <path id="Rectangle" d="M11.9899 0C14.9958 0 17.4318 2.436 17.4318 5.44186L17.4318 5.44186C17.4318 8.44773 14.9958 10.8837 11.9899 10.8837L5.44186 10.8837C2.436 10.8837 0 8.44773 0 5.44186L0 5.44186C0 2.436 2.436 0 5.44186 0L11.9899 0Z" fill="#0044FF" transform="translate(0 1.209)" />
        <rect id="Rectangle" width="3.735" height="1.209" fill="#000000" fill-rule="evenodd" transform="translate(6.848 0)" />
      </g>
      <g id="Group" transform="translate(76.575 0)">
        <path id="Rectangle" d="M11.9899 0C14.9958 0 17.4318 2.436 17.4318 5.44186L17.4318 5.44186C17.4318 8.44773 14.9958 10.8837 11.9899 10.8837L5.44186 10.8837C2.436 10.8837 0 8.44773 0 5.44186L0 5.44186C0 2.436 2.436 0 5.44186 0L11.9899 0Z" fill="#6600FF" transform="translate(0 1.209)" />
        <rect id="Rectangle" width="3.735" height="1.209" fill="#000000" fill-rule="evenodd" transform="translate(6.848 0)" />
      </g>
    </g>
    <g id="Group" transform="translate(306.302 0.907)">
      <path id="Rectangle" d="M11.9899 0C14.9958 0 17.4318 2.436 17.4318 5.44186L17.4318 5.44186C17.4318 8.44773 14.9958 10.8837 11.9899 10.8837L5.44186 10.8837C2.436 10.8837 0 8.44773 0 5.44186L0 5.44186C0 2.436 2.436 0 5.44186 0L11.9899 0Z" fill="#FF5722" transform="translate(0 1.209)" />
      <rect id="Rectangle" width="3.735" height="1.209" fill="#000000" fill-rule="evenodd" transform="translate(6.848 0)" />
      <g id="Group" transform="translate(25.525 0)">
        <path id="Rectangle" d="M11.9899 0C14.9958 0 17.4318 2.436 17.4318 5.44186L17.4318 5.44186C17.4318 8.44773 14.9958 10.8837 11.9899 10.8837L5.44186 10.8837C2.436 10.8837 0 8.44773 0 5.44186L0 5.44186C0 2.436 2.436 0 5.44186 0L11.9899 0Z" fill="#09FF00" transform="translate(0 1.209)" />
        <rect id="Rectangle" width="3.735" height="1.209" fill="#000000" fill-rule="evenodd" transform="translate(6.848 0)" />
      </g>
      <g id="Group" transform="translate(51.05 0)">
        <path id="Rectangle" d="M11.9899 0C14.9958 0 17.4318 2.436 17.4318 5.44186L17.4318 5.44186C17.4318 8.44773 14.9958 10.8837 11.9899 10.8837L5.44186 10.8837C2.436 10.8837 0 8.44773 0 5.44186L0 5.44186C0 2.436 2.436 0 5.44186 0L11.9899 0Z" fill="#0044FF" transform="translate(0 1.209)" />
        <rect id="Rectangle" width="3.735" height="1.209" fill="#000000" fill-rule="evenodd" transform="translate(6.848 0)" />
      </g>
      <g id="Group" transform="translate(76.575 0)">
        <path id="Rectangle" d="M11.9899 0C14.9958 0 17.4318 2.436 17.4318 5.44186L17.4318 5.44186C17.4318 8.44773 14.9958 10.8837 11.9899 10.8837L5.44186 10.8837C2.436 10.8837 0 8.44773 0 5.44186L0 5.44186C0 2.436 2.436 0 5.44186 0L11.9899 0Z" fill="#6600FF" transform="translate(0 1.209)" />
        <rect id="Rectangle" width="3.735" height="1.209" fill="#000000" fill-rule="evenodd" transform="translate(6.848 0)" />
      </g>
    </g>
    <g id="Group" transform="translate(408.402 0.907)">
      <path id="Rectangle" d="M11.99 0C14.9958 0 17.4318 2.436 17.4318 5.44186L17.4318 5.44186C17.4318 8.44773 14.9958 10.8837 11.99 10.8837L5.44186 10.8837C2.436 10.8837 0 8.44773 0 5.44186L0 5.44186C0 2.436 2.436 0 5.44186 0L11.99 0Z" fill="#FF5722" transform="translate(0 1.209)" />
      <rect id="Rectangle" width="3.735" height="1.209" fill="#000000" fill-rule="evenodd" transform="translate(6.848 0)" />
      <g id="Group" transform="translate(25.525 0)">
        <path id="Rectangle" d="M11.9899 0C14.9958 0 17.4318 2.436 17.4318 5.44186L17.4318 5.44186C17.4318 8.44773 14.9958 10.8837 11.9899 10.8837L5.44186 10.8837C2.436 10.8837 0 8.44773 0 5.44186L0 5.44186C0 2.436 2.436 0 5.44186 0L11.9899 0Z" fill="#09FF00" transform="translate(0 1.209)" />
        <rect id="Rectangle" width="3.735" height="1.209" fill="#000000" fill-rule="evenodd" transform="translate(6.848 0)" />
      </g>
      <g id="Group" transform="translate(51.051 0)">
        <path id="Rectangle" d="M11.9899 0C14.9958 0 17.4318 2.436 17.4318 5.44186L17.4318 5.44186C17.4318 8.44773 14.9958 10.8837 11.9899 10.8837L5.44186 10.8837C2.436 10.8837 0 8.44773 0 5.44186L0 5.44186C0 2.436 2.436 0 5.44186 0L11.9899 0Z" fill="#0044FF" transform="translate(0 1.209)" />
        <rect id="Rectangle" width="3.735" height="1.209" fill="#000000" fill-rule="evenodd" transform="translate(6.848 0)" />
      </g>
      <g id="Group" transform="translate(76.576 0)">
        <path id="Rectangle" d="M11.9899 0C14.9958 0 17.4318 2.436 17.4318 5.44186L17.4318 5.44186C17.4318 8.44773 14.9958 10.8837 11.9899 10.8837L5.44186 10.8837C2.436 10.8837 0 8.44773 0 5.44186L0 5.44186C0 2.436 2.436 0 5.44186 0L11.9899 0Z" fill="#6600FF" transform="translate(0 1.209)" />
        <rect id="Rectangle" width="3.735" height="1.209" fill="#000000" fill-rule="evenodd" transform="translate(6.848 0)" />
      </g>
    </g>
    <g id="Group" transform="translate(510.503 0.907)">
      <path id="Rectangle" d="M11.9899 0C14.9958 0 17.4318 2.436 17.4318 5.44186L17.4318 5.44186C17.4318 8.44773 14.9958 10.8837 11.9899 10.8837L5.44186 10.8837C2.436 10.8837 0 8.44773 0 5.44186L0 5.44186C0 2.436 2.436 0 5.44186 0L11.9899 0Z" fill="#FF5722" transform="translate(0 1.209)" />
      <rect id="Rectangle" width="3.735" height="1.209" fill="#000000" fill-rule="evenodd" transform="translate(6.852 0)" />
      <g id="Group" transform="translate(25.525 0)">
        <path id="Rectangle" d="M11.9898 0C14.9957 0 17.4317 2.436 17.4317 5.44186L17.4317 5.44186C17.4317 8.44773 14.9957 10.8837 11.9898 10.8837L5.44186 10.8837C2.436 10.8837 0 8.44773 0 5.44186L0 5.44186C0 2.436 2.436 0 5.44186 0L11.9898 0Z" fill="#09FF00" transform="translate(0 1.209)" />
        <rect id="Rectangle" width="3.735" height="1.209" fill="#000000" fill-rule="evenodd" transform="translate(6.853 0)" />
      </g>
      <g id="Group" transform="translate(51.049 0)">
        <path id="Rectangle" d="M11.9899 0C14.9958 0 17.4318 2.436 17.4318 5.44186L17.4318 5.44186C17.4318 8.44773 14.9958 10.8837 11.9899 10.8837L5.44186 10.8837C2.436 10.8837 0 8.44773 0 5.44186L0 5.44186C0 2.436 2.436 0 5.44186 0L11.9899 0Z" fill="#0044FF" transform="translate(0 1.209)" />
        <rect id="Rectangle" width="3.735" height="1.209" fill="#000000" fill-rule="evenodd" transform="translate(6.854 0)" />
      </g>
      <g id="Group" transform="translate(76.576 0)">
        <path id="Rectangle" d="M11.99 0C14.9958 0 17.4318 2.436 17.4318 5.44186L17.4318 5.44186C17.4318 8.44773 14.9958 10.8837 11.99 10.8837L5.44186 10.8837C2.436 10.8837 0 8.44773 0 5.44186L0 5.44186C0 2.436 2.436 0 5.44186 0L11.99 0Z" fill="#6600FF" transform="translate(0 1.209)" />
        <rect id="Rectangle" width="3.735" height="1.209" fill="#000000" fill-rule="evenodd" transform="translate(6.852 0)" />
      </g>
    </g>
  </g>
</svg>